<svg xmlns="http://www.w3.org/2000/svg" viewBox="0 0 120 120" role="img" aria-label="アットマーク">
  <rect width="120" height="120" rx="18" fill="none"/>
  <path fill="#ffffff" d="M60 13c27 0 47 19 47 45 0 24-14 37-30 37-9 0-15-4-17-11-5 7-12 11-21 11-14 0-25-11-25-27 0-21 15-40 36-40 8 0 14 3 18 8l2-6h15L77 70c-2 8 1 12 6 12 8 0 15-9 15-24 0-21-16-36-39-36-24 0-42 19-42 43 0 25 18 42 44 42 10 0 20-3 28-8l4 8c-9 6-21 10-34 10-31 0-53-21-53-52 0-30 23-52 54-52Zm-16 69c10 0 18-10 21-24 1-10-4-17-13-17-12 0-22 12-22 27 0 9 6 14 14 14Z"/>
</svg>
